<svg width="132" height="24" viewBox="0 0 132 24" style="color:white" fill="none" xmlns="http://www.w3.org/2000/svg"><path fill-rule="evenodd" clip-rule="evenodd" d="M13.8313 17.5965C14.016 17.8011 14.1179 18.0658 14.1175 18.3399C14.1175 18.6409 13.9966 18.9296 13.7813 19.1428C13.566 19.356 13.2738 19.4763 12.9688 19.4773C7.92581 19.4773 4.48725 18.325 2.44219 16.6709C1.35869 15.8363 0.570368 14.6849 0.189985 13.3813C-0.131693 12.1638 -0.0431197 10.8761 0.442323 9.71263C1.10141 8.07341 2.49115 6.56801 4.47972 5.51237C4.96179 3.7728 5.84309 2.57219 7.03698 1.86224C8.23088 1.15228 9.67334 0.962713 11.3154 1.24521C12.5345 0.464828 13.9491 0.0337545 15.4018 0C16.7837 0.00749774 18.126 0.456056 19.2283 1.27866C21.1577 1.10413 23.0893 1.58828 24.7006 2.65025C26.232 3.68422 27.2941 5.26724 27.6608 7.06238C28.6678 7.81301 29.4012 8.86546 29.7511 10.062C30.1277 11.3779 30.0863 12.9502 29.5628 14.8942C29.5628 14.9425 29.5327 14.9871 29.5138 15.0354C28.8438 16.8881 27.7194 18.5483 26.241 19.8676C25.1111 20.9121 21.601 23.4062 19.1077 23.9043C17.1493 24.2983 16.7388 23.4099 16.7463 22.4435C16.7463 20.7002 16.6635 18.0499 16.7463 16.3475C16.7443 16.2011 16.7716 16.0557 16.8266 15.9197C16.8815 15.7836 16.9631 15.6596 17.0666 15.5547C17.1701 15.4498 17.2936 15.366 17.4299 15.3081C17.5662 15.2503 17.7127 15.2195 17.8611 15.2176C18.1608 15.2136 18.4498 15.3273 18.6645 15.5337C18.7708 15.6358 18.8557 15.7577 18.9143 15.8922C18.9729 16.0267 19.0041 16.1714 19.0061 16.3178C19.1416 16.9869 19.0061 20.1501 19.1341 21.5217C20.1698 21.596 24.098 18.7636 24.6742 18.2284C25.875 17.1684 26.7912 15.8313 27.3407 14.3366V14.3106C27.7512 12.7903 27.8002 11.6158 27.5366 10.6976C27.323 9.97757 26.8823 9.34346 26.2786 8.88744C25.902 8.67185 24.2863 7.80578 22.7572 8.47857C22.517 8.58455 22.2439 8.592 21.9981 8.49928C21.7524 8.40657 21.5539 8.22129 21.4466 7.9842C21.3392 7.74711 21.3316 7.47763 21.4256 7.23505C21.5195 6.99247 21.7072 6.79665 21.9475 6.69067C22.9157 6.27956 23.9885 6.17187 25.0207 6.38216C24.6528 5.6326 24.0917 4.99167 23.3937 4.52364C22.1573 3.72319 20.6732 3.38202 19.2057 3.56092C18.6106 4.24858 17.541 5.60158 17.4393 6.53456C17.681 6.61052 17.9144 6.71014 18.1361 6.83192C18.2481 6.89538 18.3463 6.97999 18.4252 7.08093C18.5041 7.18186 18.5621 7.29715 18.5958 7.4202C18.6296 7.54324 18.6385 7.67165 18.6219 7.79808C18.6054 7.92451 18.5638 8.04648 18.4995 8.15705C18.4352 8.26761 18.3495 8.36459 18.2472 8.44245C18.1449 8.52031 18.0281 8.57753 17.9034 8.61084C17.6516 8.6781 17.3831 8.6439 17.1568 8.51574C16.4375 8.10315 14.7314 8.04739 14.7276 8.04739C14.5985 8.04349 14.4715 8.01453 14.3537 7.96216C14.236 7.9098 14.1298 7.83506 14.0414 7.74222C13.9529 7.64937 13.8838 7.54023 13.8381 7.42103C13.7923 7.30183 13.7708 7.17491 13.7748 7.04751C13.7787 6.92011 13.8081 6.79472 13.8611 6.67851C13.9142 6.5623 13.9899 6.45755 14.084 6.37022C14.1781 6.28289 14.2886 6.21471 14.4094 6.16957C14.5302 6.12442 14.6588 6.10319 14.7879 6.1071C14.7879 6.1071 15.0892 6.1071 15.5223 6.16285C15.7596 4.95481 16.6522 3.63898 17.3301 2.76548C16.7399 2.44265 16.0765 2.27258 15.4018 2.27111C14.3919 2.30582 13.4104 2.61028 12.562 3.15205C12.5503 3.16978 12.5364 3.18601 12.5206 3.20037C12.1503 3.60855 11.8626 4.08297 11.6732 4.59798C11.8869 4.59446 12.1006 4.60191 12.3135 4.62028C12.4421 4.63175 12.5671 4.66811 12.6815 4.72727C12.7958 4.78644 12.8972 4.86726 12.98 4.96511C13.0627 5.06296 13.125 5.17593 13.1635 5.29758C13.202 5.41922 13.2158 5.54715 13.2042 5.67406C13.1926 5.80098 13.1557 5.92439 13.0958 6.03725C13.0358 6.15011 12.9539 6.25022 12.8548 6.33185C12.7556 6.41348 12.6412 6.47503 12.5179 6.513C12.3947 6.55097 12.265 6.56461 12.1365 6.55314C11.2666 6.47602 10.393 6.65311 9.62438 7.06238C9.5131 7.1273 9.38995 7.16995 9.26197 7.1879C9.13398 7.20585 9.00367 7.19874 8.87847 7.16699C8.75326 7.13524 8.63563 7.07945 8.53227 7.00283C8.42891 6.9262 8.34185 6.83024 8.27607 6.72041C8.21029 6.61058 8.16708 6.48904 8.14889 6.36273C8.1307 6.23641 8.1379 6.1078 8.17008 5.98424C8.20225 5.86067 8.25877 5.74457 8.33641 5.64256C8.41405 5.54055 8.51128 5.45463 8.62257 5.38971C8.96367 5.20167 9.32332 5.04848 9.69594 4.93251C9.70409 4.39951 9.83277 3.87503 10.0726 3.39738C9.42869 3.35534 8.78629 3.49867 8.22335 3.80997C7.4927 4.24858 6.94283 5.07376 6.63776 6.33755C6.6114 7.20362 6.70179 9.10303 7.79776 10.3891C7.89317 10.4849 7.96748 10.5991 8.01602 10.7246C8.06456 10.8501 8.08627 10.9841 8.0798 11.1182C8.07332 11.2524 8.0388 11.3838 7.9784 11.5041C7.918 11.6245 7.83303 11.7312 7.72883 11.8176C7.62463 11.904 7.50345 11.9682 7.37291 12.0061C7.24236 12.0441 7.10528 12.0549 6.97027 12.0381C6.83526 12.0212 6.70524 11.977 6.58839 11.9081C6.47154 11.8393 6.37038 11.7473 6.29127 11.6381C5.4576 10.5832 4.93617 9.32108 4.78478 7.99164C3.81103 8.61174 3.04558 9.50303 2.58531 10.5527C2.28878 11.2593 2.23196 12.0417 2.42336 12.7829C2.68033 13.6294 3.20082 14.3746 3.91102 14.9128C5.33842 16.0688 7.70737 16.9237 11.1761 17.143C10.738 15.5624 10.8291 13.8844 11.4359 12.3592C11.1168 12.0466 10.8187 11.7138 10.5433 11.363C10.5245 11.337 10.5433 11.337 10.5697 11.3407H10.5396C10.3122 11.2141 10.145 11.0038 10.0744 10.7558C10.0038 10.5078 10.0356 10.2423 10.163 10.0174C10.2128 9.88966 10.2923 9.77524 10.3952 9.6834C10.498 9.59155 10.6213 9.52485 10.7551 9.48868C10.8889 9.45251 11.0294 9.44787 11.1653 9.47515C11.3013 9.50243 11.4288 9.56086 11.5376 9.64572C11.7525 9.78393 11.9369 9.96344 12.08 10.1735C12.5281 10.7348 13.6166 12.0915 15.1494 11.8165C15.2787 11.7875 15.4126 11.7847 15.543 11.8081C15.6734 11.8315 15.7977 11.8807 15.9083 11.9528C16.019 12.0248 16.1137 12.1182 16.1868 12.2273C16.26 12.3364 16.31 12.459 16.3339 12.5877C16.3578 12.7164 16.355 12.8485 16.3259 12.9761C16.2967 13.1037 16.2416 13.2242 16.1641 13.3303C16.0865 13.4364 15.988 13.5259 15.8745 13.5934C15.7609 13.661 15.6347 13.7051 15.5035 13.7233C14.8167 13.855 14.1076 13.8167 13.4396 13.6118C12.7692 15.842 13.6241 17.2917 13.8426 17.6076L13.8313 17.5965ZM20.2338 13.2847C20.4142 13.2561 20.5987 13.2658 20.7751 13.3129C20.9514 13.3601 21.1156 13.4438 21.2566 13.5584C21.3977 13.673 21.5124 13.8159 21.5932 13.9777C21.674 14.1394 21.719 14.3162 21.7253 14.4965C21.702 14.6219 21.704 14.7506 21.7312 14.8753C21.7584 15 21.8102 15.1182 21.8836 15.2231C21.957 15.328 22.0507 15.4177 22.1592 15.4869C22.2678 15.5561 22.3891 15.6035 22.5162 15.6264C22.6433 15.6494 22.7737 15.6474 22.9001 15.6206C23.0264 15.5938 23.1461 15.5427 23.2524 15.4702C23.3588 15.3977 23.4496 15.3053 23.5197 15.1981C23.5898 15.091 23.6379 14.9713 23.6611 14.8459C23.985 13.0728 22.4183 11.4448 20.7084 11.3147C20.4033 11.2899 20.0961 11.3099 19.797 11.3741C19.6706 11.4027 19.5512 11.4555 19.4455 11.5296C19.3398 11.6038 19.25 11.6977 19.1811 11.8061C19.1122 11.9144 19.0656 12.0352 19.0439 12.1613C19.0223 12.2875 19.0261 12.4166 19.055 12.5413C19.0839 12.666 19.1375 12.7839 19.2126 12.8882C19.2877 12.9925 19.3828 13.0812 19.4926 13.1491C19.6025 13.2171 19.7248 13.2631 19.8526 13.2845C19.9804 13.3058 20.1112 13.3021 20.2376 13.2736L20.2338 13.2847Z" fill="#33C892"></path><path fill-rule="evenodd" clip-rule="evenodd" d="M41.7691 7.1917V17.8244C41.7664 18.0064 41.7996 18.1871 41.8668 18.356C41.932 18.5204 42.0306 18.6693 42.1561 18.7932C42.28 18.9195 42.4275 19.0199 42.5901 19.0885C42.9299 19.2198 43.306 19.2198 43.6458 19.0885C43.8091 19.0191 43.9578 18.9189 44.0837 18.7932C44.2093 18.6693 44.3078 18.5204 44.373 18.356C44.4402 18.1871 44.4734 18.0064 44.4707 17.8244V7.1917H47.0317C47.1885 7.19313 47.3441 7.16286 47.4892 7.10265C47.6342 7.04245 47.7658 6.95355 47.8762 6.84121C47.9928 6.73068 48.0847 6.59645 48.1459 6.44741C48.2057 6.30265 48.2363 6.14737 48.2359 5.9906C48.2389 5.81917 48.207 5.64895 48.142 5.49046C48.0797 5.34204 47.9879 5.20802 47.8723 5.09666C47.7595 4.98585 47.6268 4.89765 47.4813 4.83675C47.3361 4.77738 47.1805 4.74792 47.0238 4.75011H39.2042C39.0476 4.74792 38.892 4.77738 38.7468 4.83675C38.6012 4.89748 38.4685 4.9857 38.3558 5.09666C38.2422 5.20894 38.1519 5.34279 38.09 5.49046C38.0294 5.64188 37.9989 5.80375 38 5.96697C38.0072 6.28349 38.1374 6.58455 38.3625 6.80546C38.5877 7.02637 38.8899 7.14949 39.2042 7.14838H41.7652V7.18382L41.7691 7.1917ZM108.204 18.2182V12.3111C108.204 12.1124 108.192 11.9139 108.169 11.7165C108.146 11.5078 108.114 11.2912 108.067 11.0588C108.021 10.8339 107.95 10.6147 107.856 10.4051C107.749 10.191 107.618 9.99016 107.465 9.80655C107.309 9.60532 107.126 9.42647 106.922 9.27492C106.692 9.10599 106.446 8.96086 106.187 8.84173C105.878 8.70176 105.552 8.60376 105.217 8.55032C104.806 8.48262 104.39 8.44969 103.974 8.45187C103.716 8.45187 103.446 8.45187 103.165 8.49125C102.883 8.53063 102.594 8.55032 102.297 8.60151C102.024 8.64406 101.755 8.70591 101.491 8.7866C101.264 8.85841 101.045 8.95067 100.834 9.06226C100.718 9.12512 100.608 9.19896 100.506 9.28279C100.426 9.34819 100.357 9.42674 100.303 9.51514C100.257 9.59428 100.221 9.67898 100.197 9.76717C100.173 9.85173 100.161 9.93922 100.162 10.0271C100.162 10.1612 100.184 10.2944 100.228 10.4209C100.278 10.5505 100.348 10.6714 100.436 10.7792C100.528 10.889 100.644 10.9754 100.776 11.0313C100.931 11.0891 101.095 11.1171 101.26 11.114C101.363 11.1134 101.464 11.1055 101.565 11.0904C101.679 11.0731 101.791 11.0494 101.902 11.0195L102.199 10.9407L102.59 10.8423C102.699 10.8147 102.805 10.7871 102.91 10.7674C103.016 10.7477 103.122 10.7281 103.215 10.7123L103.481 10.6808H103.716C104.02 10.6732 104.324 10.7158 104.615 10.8068C104.833 10.8747 105.023 11.0131 105.155 11.2006C105.266 11.3627 105.353 11.5405 105.413 11.7283C105.469 11.9214 105.498 12.1216 105.499 12.323V12.9334H103.661C103.073 12.9244 102.487 12.9946 101.917 13.1421C101.441 13.2633 100.992 13.4729 100.592 13.7603C100.235 14.0129 99.9457 14.3513 99.7513 14.7449C99.5572 15.1567 99.4609 15.6083 99.4698 16.0641C99.4656 16.4817 99.5413 16.8961 99.6927 17.2849C99.8434 17.6657 100.068 18.0125 100.353 18.3048C100.648 18.6116 101.007 18.8473 101.405 18.994C102.118 19.2425 102.883 19.2929 103.622 19.1397C103.897 19.0834 104.166 18.9989 104.424 18.8877C104.62 18.8072 104.81 18.7097 104.99 18.5962C105.174 18.477 105.349 18.3454 105.514 18.2024L105.561 18.1591V18.2221C105.605 18.4631 105.726 18.683 105.905 18.8483C106.149 19.0488 106.454 19.1586 106.769 19.1594C107.102 19.1786 107.432 19.0903 107.712 18.9074C107.835 18.8323 107.941 18.7322 108.024 18.6136C108.107 18.495 108.164 18.3603 108.193 18.2182H108.204ZM105.503 14.7842V16.1586C105.352 16.2896 105.193 16.4094 105.026 16.517C104.866 16.6175 104.699 16.7044 104.525 16.7769C104.362 16.8467 104.194 16.9007 104.021 16.9383C103.858 16.974 103.691 16.9924 103.524 16.9935C103.33 16.995 103.137 16.9698 102.95 16.9186C102.784 16.8821 102.627 16.8125 102.488 16.7139C102.364 16.6164 102.265 16.491 102.199 16.3476C102.133 16.1934 102.102 16.027 102.105 15.8593C102.101 15.6925 102.139 15.5273 102.214 15.3789C102.292 15.2375 102.405 15.1194 102.543 15.0363C102.704 14.9373 102.882 14.868 103.067 14.8315C103.296 14.7847 103.529 14.7623 103.763 14.7645H105.503V14.8V14.7842ZM66.0567 18.23V12.323C66.0567 12.1339 66.0567 11.9292 66.0254 11.7283C65.9942 11.5275 65.9668 11.2991 65.9238 11.0707C65.8776 10.8451 65.8054 10.6257 65.7087 10.4169C65.6094 10.2039 65.4861 10.0031 65.3412 9.81837C65.1849 9.61714 65.002 9.43828 64.7978 9.28673C64.5664 9.11782 64.3189 8.9727 64.0588 8.85355C63.7514 8.71302 63.4266 8.61499 63.0931 8.56213C62.681 8.4925 62.2637 8.45955 61.8459 8.46368C61.5878 8.46368 61.3219 8.46368 61.0404 8.50306C60.7589 8.54244 60.4696 8.56213 60.1725 8.61333C59.8999 8.65539 59.6307 8.71725 59.3671 8.79842C59.1403 8.87023 58.9205 8.96249 58.7102 9.07408C58.594 9.13694 58.4841 9.21078 58.3818 9.29461C58.3005 9.35887 58.2316 9.43763 58.1785 9.52695C58.1335 9.60507 58.0981 9.68837 58.0729 9.77505C58.0495 9.86101 58.0376 9.94975 58.0377 10.0389C58.0354 10.1732 58.058 10.3067 58.1042 10.4327C58.1499 10.5684 58.2187 10.695 58.3075 10.8068C58.3977 10.9186 58.5148 11.0054 58.6476 11.0588C58.8013 11.117 58.9645 11.145 59.1286 11.1415C59.2306 11.1412 59.3326 11.1333 59.4335 11.1179C59.5482 11.1011 59.6618 11.0774 59.7737 11.047L60.4462 10.8698C60.5556 10.8383 60.6612 10.8147 60.7628 10.795C60.8645 10.7753 60.974 10.7556 61.0717 10.7399L61.3376 10.7084H61.5683C61.8741 10.7005 62.1792 10.7431 62.4714 10.8344C62.6814 10.8972 62.8662 11.0254 62.9992 11.2006C63.111 11.3619 63.1968 11.54 63.2534 11.7283C63.3121 11.9209 63.3411 12.1215 63.3394 12.323V12.9334H61.494C60.9074 12.9244 60.3222 12.9946 59.7541 13.1421C59.2767 13.2632 58.8259 13.4729 58.4248 13.7603C58.0752 14.0169 57.7922 14.3546 57.5998 14.7449C57.4089 15.1576 57.3139 15.6088 57.3222 16.0641C57.3168 16.4814 57.3911 16.8959 57.5412 17.2849C57.6934 17.6659 57.9193 18.0126 58.2058 18.3048C58.4988 18.6116 58.857 18.8472 59.2537 18.994C59.7014 19.1549 60.1741 19.2336 60.6495 19.2263C60.9254 19.2272 61.2007 19.1981 61.4705 19.1397C61.7469 19.084 62.0168 18.9995 62.2759 18.8877C62.472 18.808 62.6605 18.7104 62.8389 18.5962C63.0241 18.478 63.2005 18.3464 63.3668 18.2024L63.4137 18.1591V18.2221C63.4591 18.4625 63.5796 18.6819 63.7577 18.8483C64.0038 19.0479 64.3098 19.1576 64.6257 19.1594C64.9573 19.1798 65.2866 19.0913 65.5641 18.9074C65.6877 18.8328 65.7944 18.733 65.8772 18.6142C65.9601 18.4955 66.0172 18.3606 66.045 18.2182L66.0567 18.23ZM50.269 15.6309C50.3458 15.8971 50.4661 16.1486 50.6248 16.3752C50.7918 16.6126 51.0283 16.7916 51.3011 16.8871C51.6463 17.0092 52.0107 17.0666 52.3763 17.0565C52.4897 17.0565 52.6031 17.0565 52.7165 17.0565L53.0645 17.025C53.2482 17.0013 53.4163 16.962 53.5806 16.9265L53.7096 16.895L53.9637 16.8438C54.1279 16.8084 54.2882 16.7769 54.4368 16.7375C54.5485 16.7063 54.6621 16.6827 54.777 16.6666C54.8871 16.651 54.9981 16.6431 55.1093 16.643C55.2728 16.6384 55.4357 16.6638 55.5902 16.7178C55.7157 16.7614 55.8276 16.8375 55.9147 16.9383C55.9958 17.0317 56.0606 17.1382 56.1063 17.2534C56.1469 17.3644 56.1681 17.4816 56.1688 17.5999C56.169 17.7148 56.1519 17.8289 56.118 17.9386C56.0837 18.0388 56.032 18.1321 55.9655 18.2143C55.8975 18.2978 55.8201 18.3732 55.7349 18.4387C55.6465 18.5116 55.5509 18.5749 55.4494 18.6278C55.2392 18.7413 55.0177 18.8323 54.7887 18.8995C54.5214 18.983 54.2482 19.0462 53.9715 19.0885C53.6705 19.1397 53.3851 19.1751 53.1153 19.1988C52.8633 19.2249 52.6101 19.2381 52.3568 19.2381C51.9636 19.2395 51.571 19.2052 51.1839 19.1358C50.8351 19.0741 50.4942 18.9737 50.1673 18.8365C49.8658 18.7082 49.5799 18.5457 49.315 18.3521C49.0613 18.1692 48.8303 17.9563 48.6268 17.7181C48.4243 17.4755 48.2487 17.2114 48.1029 16.9305C47.9478 16.6357 47.8233 16.3256 47.7315 16.005C47.6311 15.6609 47.5579 15.3093 47.5126 14.9536C47.4615 14.5724 47.4367 14.1882 47.4383 13.8037C47.4276 13.0655 47.5278 12.33 47.7354 11.622C47.9158 11.0042 48.2162 10.4287 48.619 9.92863C49.0031 9.44893 49.5005 9.07389 50.0657 8.8378C50.7081 8.58514 51.3936 8.46204 52.0831 8.4755C52.4527 8.47294 52.8218 8.50457 53.1857 8.57001C53.5034 8.62709 53.8131 8.72228 54.1084 8.85355C54.3743 8.97326 54.6261 9.12251 54.8591 9.29855C55.0756 9.46742 55.27 9.66326 55.4377 9.88138C55.6068 10.1002 55.7523 10.3365 55.8717 10.5863C55.9946 10.8486 56.094 11.1214 56.1688 11.4015C56.2506 11.6975 56.312 11.9988 56.3526 12.3033C56.392 12.6181 56.4116 12.9351 56.4112 13.2523C56.4176 13.5169 56.3927 13.7813 56.337 14.0399C56.3098 14.1976 56.2378 14.344 56.1297 14.4613C56.0356 14.5471 55.9252 14.6127 55.8052 14.6543C55.6792 14.6965 55.5471 14.7178 55.4143 14.7173H50.1517V14.7449C50.1495 15.0404 50.189 15.3347 50.269 15.6191V15.6309ZM53.8933 12.9924H53.9285V12.953C53.9249 12.6556 53.8868 12.3595 53.8151 12.0709C53.7536 11.8161 53.6548 11.5719 53.5219 11.3463C53.3913 11.1288 53.1975 10.957 52.9667 10.8541C52.6863 10.7397 52.3855 10.6847 52.0831 10.6926C51.8152 10.686 51.5489 10.7356 51.3011 10.8383C51.0727 10.933 50.8692 11.08 50.7069 11.2676C50.5303 11.4748 50.3973 11.7159 50.3159 11.9764C50.2154 12.2929 50.1563 12.6212 50.1399 12.953V12.9924H53.8933ZM63.355 14.796V16.1704C63.2035 16.2996 63.0442 16.4192 62.878 16.5288C62.7183 16.6285 62.5509 16.7154 62.3776 16.7887C62.2145 16.8574 62.0457 16.9114 61.8732 16.9502C61.71 16.9856 61.5436 17.004 61.3767 17.0053C61.1813 17.0065 60.9867 16.9813 60.798 16.9305C60.6333 16.8881 60.4781 16.8146 60.3406 16.7139C60.218 16.6163 60.1201 16.4908 60.0552 16.3476C59.9898 16.1934 59.9579 16.027 59.9613 15.8593C59.9573 15.6925 59.9949 15.5273 60.0708 15.3789C60.1462 15.2359 60.26 15.1172 60.3992 15.0363C60.559 14.9371 60.7351 14.8678 60.9192 14.8315C61.1483 14.7849 61.3815 14.7625 61.6152 14.7645H63.355V14.8V14.796ZM73.9819 10.9998L74.0679 11.7204C74.0841 11.896 74.129 12.0677 74.2008 12.2284C74.2681 12.3751 74.3607 12.5084 74.4745 12.6222C74.5864 12.7285 74.7198 12.8091 74.8655 12.8585C75.0144 12.9136 75.1721 12.9403 75.3307 12.9373C75.5072 12.9411 75.6823 12.9048 75.8429 12.831C75.9977 12.7575 76.132 12.6466 76.2339 12.508C76.3416 12.3522 76.4149 12.175 76.4489 11.9882C76.4941 11.784 76.5034 11.5734 76.4763 11.366L76.3903 10.6887C76.3698 10.5204 76.3398 10.3534 76.3004 10.1885C76.2689 10.0616 76.223 9.93868 76.1635 9.82231C76.1027 9.71661 76.0277 9.61987 75.9407 9.53483C75.8392 9.43098 75.7279 9.33734 75.6083 9.25523C75.4199 9.12369 75.2196 9.01031 75.0101 8.91656C74.7785 8.8171 74.5392 8.73676 74.2946 8.67634C74.0373 8.61012 73.7762 8.56014 73.5127 8.52669C73.2665 8.49228 73.0183 8.47517 72.7698 8.4755C72.0601 8.46478 71.3547 8.58766 70.6898 8.8378C70.0955 9.07987 69.5615 9.45098 69.1259 9.92469C68.6612 10.4147 68.3054 10.9986 68.082 11.6377C67.8487 12.357 67.7351 13.1101 67.7457 13.8667C67.7448 14.2397 67.7723 14.6123 67.8278 14.9811C67.8791 15.3314 67.9602 15.6766 68.0702 16.0129C68.1713 16.3306 68.3023 16.6378 68.4612 16.9305C68.6172 17.2117 68.802 17.4756 69.0125 17.7181C69.2226 17.9543 69.4587 18.1657 69.7163 18.3482C69.9862 18.5381 70.2744 18.7004 70.5764 18.8325C70.9023 18.9706 71.2417 19.0736 71.5891 19.1397C71.9761 19.2101 72.3687 19.2444 72.762 19.2421C72.9575 19.2421 73.1764 19.2421 73.4228 19.2027C73.6691 19.1633 73.9467 19.1358 74.2477 19.0846C74.5211 19.0368 74.7914 18.9724 75.057 18.8916C75.2948 18.8214 75.5273 18.7346 75.753 18.6317C75.8573 18.582 75.9568 18.5227 76.0501 18.4545C76.1376 18.3886 76.2164 18.3119 76.2847 18.2261C76.353 18.1407 76.4047 18.0432 76.4372 17.9386C76.4711 17.8236 76.4882 17.7042 76.488 17.5842C76.4895 17.4503 76.4683 17.3171 76.4255 17.1904C76.3794 17.0657 76.3148 16.9489 76.2339 16.8438C76.1485 16.7381 76.0383 16.6556 75.9133 16.6036C75.7666 16.5451 75.6097 16.5169 75.4519 16.5209C75.3549 16.5209 75.258 16.5301 75.1626 16.5485C75.0464 16.5674 74.9315 16.5937 74.8185 16.6272L74.4588 16.7257L74.1148 16.8163L73.8176 16.8793L73.4697 16.9423C73.3485 16.9659 73.2273 16.9817 73.1061 16.9935C72.9849 17.0053 72.8715 16.9935 72.762 16.9935C72.4081 17.0013 72.0574 16.9258 71.7376 16.7729C71.445 16.6254 71.1987 16.3992 71.0261 16.1192C70.8387 15.8167 70.7014 15.4855 70.6194 15.1387C70.5229 14.7218 70.477 14.2947 70.4826 13.8667C70.476 13.4243 70.522 12.9827 70.6194 12.5514C70.6987 12.195 70.839 11.8552 71.0339 11.5472C71.2096 11.2713 71.4571 11.0493 71.7494 10.9053C72.0687 10.7561 72.4179 10.6833 72.7698 10.6926C72.8705 10.6934 72.971 10.7 73.0709 10.7123C73.1773 10.7253 73.283 10.7437 73.3876 10.7674C73.4894 10.7924 73.5899 10.8226 73.6886 10.858C73.7826 10.8889 73.8741 10.9271 73.9623 10.9722H73.9819V10.9998ZM78.1106 6.12055V17.8047C78.1079 17.9867 78.1411 18.1674 78.2083 18.3363C78.275 18.5009 78.3748 18.6498 78.5016 18.7735C78.6254 18.8998 78.7729 19.0002 78.9356 19.0688C79.2754 19.2001 79.6514 19.2001 79.9912 19.0688C80.1538 19.0002 80.3013 18.8998 80.4252 18.7735C80.5508 18.6496 80.6493 18.5007 80.7145 18.3363C80.7817 18.1674 80.8149 17.9867 80.8123 17.8047V11.5393C80.9483 11.4233 81.092 11.3167 81.2423 11.2203C81.4018 11.1224 81.5662 11.033 81.735 10.9525C81.8951 10.8738 82.0628 10.8118 82.2354 10.7674C82.3889 10.7282 82.5463 10.707 82.7046 10.7044C82.9268 10.7022 83.1481 10.7327 83.3614 10.795C83.5513 10.8501 83.7291 10.941 83.8854 11.0628C84.0508 11.2042 84.1705 11.392 84.2294 11.6023C84.3096 11.8878 84.3465 12.1839 84.3389 12.4805V17.8047C84.3381 17.9865 84.3712 18.1669 84.4366 18.3363C84.578 18.6719 84.8449 18.9379 85.1795 19.0767C85.5193 19.208 85.8953 19.208 86.2351 19.0767C86.5624 18.9364 86.823 18.6739 86.9624 18.3442C87.0278 18.1747 87.0609 17.9944 87.0601 17.8126V12.4687C87.073 11.8548 86.9926 11.2426 86.8216 10.6532C86.6939 10.1901 86.4533 9.76639 86.1218 9.42063C85.8086 9.10695 85.4309 8.86632 85.0153 8.71572C84.5481 8.55132 84.0557 8.47133 83.5608 8.47943C83.3211 8.47921 83.0818 8.49896 82.8453 8.5385C82.6103 8.57669 82.3788 8.63465 82.1533 8.71178C81.926 8.78843 81.7061 8.88598 81.4965 9.00319C81.2781 9.12621 81.0702 9.26715 80.8748 9.42456L80.8123 9.47182V6.12055C80.8149 5.93857 80.7817 5.75786 80.7145 5.58892C80.6493 5.42452 80.5508 5.27564 80.4252 5.15179C80.3013 5.02541 80.1538 4.92502 79.9912 4.85644C79.6514 4.72517 79.2754 4.72517 78.9356 4.85644C78.7729 4.92502 78.6254 5.02541 78.5016 5.15179C78.3748 5.27548 78.275 5.42433 78.2083 5.58892C78.1411 5.75786 78.1079 5.93857 78.1106 6.12055ZM91.6776 8.8378V6.12055C91.6784 5.93873 91.6452 5.75838 91.5798 5.58892C91.5128 5.42455 91.413 5.27578 91.2866 5.15179C91.1627 5.02541 91.0152 4.92502 90.8526 4.85644C90.5128 4.72517 90.1368 4.72517 89.797 4.85644C89.6336 4.92357 89.4858 5.02414 89.363 5.15179C89.2375 5.27654 89.1378 5.42511 89.0697 5.58892C89.0057 5.75864 88.9738 5.93898 88.9759 6.12055C88.9759 6.56555 88.9759 6.70338 88.9759 6.84121C88.9759 6.97904 88.9759 7.12475 88.9759 7.56187V17.7378C88.9462 18.0764 89.017 18.4163 89.1792 18.7144C89.2959 18.8841 89.453 19.0216 89.636 19.1144C89.819 19.2073 90.0222 19.2525 90.227 19.246C90.5593 19.267 90.8891 19.177 91.1654 18.9901C91.2954 18.9172 91.4082 18.8168 91.496 18.6958C91.5837 18.5748 91.6443 18.436 91.6737 18.2891V18.2103L91.7245 18.2694C91.9723 18.5678 92.2837 18.806 92.6355 18.9664C93.3813 19.2277 94.182 19.2874 94.9579 19.1397C95.2102 19.0861 95.4564 19.0069 95.6929 18.9034C95.9328 18.7989 96.1597 18.6668 96.3693 18.5096C96.588 18.3408 96.7873 18.148 96.9636 17.9347C97.1553 17.7039 97.3217 17.453 97.4602 17.1864C97.6167 16.8912 97.7475 16.5829 97.8511 16.2649C97.969 15.9046 98.0541 15.5342 98.1053 15.1583C98.1618 14.7288 98.1892 14.296 98.1874 13.8627C98.1963 13.127 98.0948 12.3941 97.8863 11.6889C97.7054 11.0689 97.4096 10.489 97.0144 9.97983C96.6185 9.48859 96.1044 9.10763 95.5209 8.87324C94.8572 8.61311 94.149 8.48732 93.437 8.50306C93.2906 8.50231 93.1443 8.51152 92.9991 8.53063C92.8514 8.55 92.7052 8.57894 92.5612 8.61727L92.1389 8.73541C91.9982 8.77479 91.8692 8.81811 91.748 8.86142H91.701V8.8378H91.6776ZM91.6776 16.1665V11.0707C91.802 11.0013 91.933 10.9445 92.0686 10.9013C92.2158 10.8544 92.366 10.8176 92.5182 10.7911C92.6785 10.7635 92.831 10.7399 92.9756 10.7281C93.1054 10.7129 93.2359 10.705 93.3666 10.7044C93.7021 10.6953 94.0348 10.7683 94.3362 10.9171C94.61 11.0629 94.8355 11.286 94.9853 11.559C95.1571 11.8725 95.2785 12.2114 95.345 12.5632C95.4288 12.9964 95.4694 13.4371 95.4662 13.8785C95.4708 14.3172 95.4315 14.7552 95.3489 15.1859C95.2838 15.5344 95.1651 15.8706 94.997 16.1822C94.8597 16.4427 94.6559 16.6616 94.4066 16.8163C94.1545 16.9614 93.8681 17.035 93.5777 17.0289C93.4302 17.0268 93.2833 17.0084 93.1398 16.9738C92.9718 16.9326 92.8071 16.8786 92.6472 16.8123C92.4731 16.7407 92.3056 16.6537 92.1468 16.5524C91.9822 16.4446 91.8266 16.3234 91.6815 16.1901L91.6776 16.1665ZM113.142 10.6532C113.354 10.6058 113.571 10.5834 113.787 10.5863C113.932 10.5863 114.077 10.5863 114.214 10.606C114.351 10.6213 114.489 10.6436 114.624 10.6729C114.753 10.7005 114.882 10.7359 115.015 10.7753C115.148 10.8147 115.273 10.8619 115.406 10.9053L115.762 11.0234L116.043 11.1179C116.143 11.1515 116.245 11.1779 116.348 11.1967C116.449 11.2124 116.551 11.2203 116.653 11.2203C116.804 11.2256 116.955 11.1988 117.095 11.1415C117.216 11.0922 117.323 11.0122 117.404 10.9092C117.481 10.8057 117.543 10.6917 117.588 10.5705C117.627 10.4512 117.647 10.3261 117.646 10.2004C117.647 10.0852 117.629 9.97073 117.592 9.86169C117.555 9.75684 117.498 9.66044 117.424 9.57815C117.347 9.48992 117.263 9.40825 117.173 9.33399C117.084 9.26543 116.988 9.20482 116.888 9.15284C116.681 9.04944 116.465 8.96509 116.243 8.9008C115.993 8.82204 115.707 8.7551 115.387 8.68815C115.066 8.6212 114.757 8.57789 114.468 8.54638C114.195 8.51582 113.921 8.50005 113.647 8.49912C113.403 8.49853 113.16 8.51564 112.919 8.55032C112.436 8.615 111.963 8.74755 111.516 8.94412C111.306 9.04019 111.104 9.15484 110.914 9.28673C110.542 9.54117 110.233 9.87794 110.011 10.2712C109.895 10.4735 109.808 10.6908 109.753 10.9171C109.695 11.1609 109.666 11.4107 109.667 11.6614C109.663 11.9194 109.696 12.1766 109.764 12.4253C109.822 12.6483 109.918 12.8591 110.05 13.0476C110.176 13.2289 110.317 13.3989 110.472 13.5556C110.628 13.7015 110.797 13.8333 110.976 13.9494C111.155 14.0723 111.342 14.1829 111.535 14.2802C111.726 14.3742 111.922 14.4571 112.122 14.5283L112.689 14.7212C112.865 14.7803 113.025 14.8275 113.174 14.8669C113.494 14.9536 113.784 15.0402 114.038 15.1308C114.265 15.206 114.487 15.2954 114.702 15.3986C114.871 15.4742 115.02 15.5889 115.136 15.7333C115.232 15.8598 115.283 16.0151 115.281 16.1744C115.282 16.3056 115.248 16.4347 115.183 16.5485C115.108 16.6725 115.006 16.7786 114.886 16.8596C114.744 16.9606 114.583 17.0328 114.413 17.0722C114.203 17.1224 113.988 17.1462 113.772 17.1431C113.633 17.1428 113.495 17.1349 113.357 17.1195C113.217 17.1195 113.068 17.0801 112.916 17.0486C112.763 17.0171 112.611 16.9817 112.466 16.9423C112.321 16.9029 112.165 16.8675 112.016 16.8241L111.414 16.643L111.313 16.6115C111.201 16.5778 111.087 16.5515 110.972 16.5327C110.862 16.517 110.751 16.5091 110.64 16.5091C110.481 16.5052 110.322 16.5347 110.175 16.5957C110.042 16.6506 109.926 16.7403 109.839 16.8556C109.751 16.963 109.681 17.0841 109.631 17.214C109.583 17.3394 109.559 17.4732 109.561 17.6078C109.561 17.7226 109.578 17.8368 109.612 17.9465C109.646 18.0467 109.698 18.14 109.764 18.2221C109.836 18.3055 109.917 18.3796 110.007 18.4427C110.111 18.5173 110.223 18.5819 110.339 18.6356C110.448 18.6829 110.566 18.7301 110.699 18.7774C110.827 18.8232 110.958 18.8626 111.09 18.8955C111.242 18.9349 111.395 18.9743 111.551 19.0058C111.707 19.0373 111.856 19.0688 112.012 19.0964C112.169 19.1239 112.329 19.1515 112.489 19.1712L112.943 19.2145L113.377 19.2381H113.768C114.036 19.2372 114.303 19.2201 114.569 19.187C114.833 19.1555 115.094 19.1055 115.351 19.0373C115.596 18.9737 115.835 18.8907 116.067 18.7892C116.287 18.6961 116.497 18.5827 116.696 18.4505C116.887 18.3241 117.063 18.1761 117.22 18.0095C117.37 17.8432 117.501 17.6609 117.611 17.466C117.731 17.265 117.82 17.0474 117.877 16.8202C117.936 16.5767 117.965 16.3266 117.963 16.0759C117.965 15.8358 117.938 15.5964 117.881 15.3631C117.83 15.1546 117.747 14.9553 117.635 14.7724C117.521 14.5968 117.39 14.4332 117.244 14.2841C117.104 14.1356 116.948 14.0034 116.778 13.8903C116.427 13.6442 116.044 13.4469 115.641 13.3035C115.433 13.2248 115.23 13.1499 115.027 13.083C114.824 13.0161 114.636 12.953 114.448 12.9018C114.143 12.8152 113.87 12.7246 113.619 12.638C113.369 12.5514 113.146 12.4529 112.947 12.3584C112.768 12.2788 112.613 12.1556 112.493 12C112.388 11.8583 112.333 11.6849 112.337 11.5078C112.337 11.3857 112.367 11.2654 112.423 11.1573C112.486 11.0396 112.572 10.9363 112.677 10.8541C112.809 10.7555 112.959 10.6857 113.119 10.6493L113.142 10.6532ZM121.885 15.6506C121.805 15.3662 121.765 15.0719 121.767 14.7764V14.737H126.999C127.132 14.7376 127.264 14.7163 127.39 14.674C127.51 14.6333 127.621 14.5676 127.714 14.481C127.826 14.3656 127.899 14.2185 127.925 14.0596C127.979 13.8007 128.004 13.5365 128 13.272C128.001 12.649 127.923 12.0283 127.769 11.4251C127.694 11.145 127.595 10.8722 127.472 10.6099C127.352 10.3601 127.207 10.1238 127.038 9.905C126.87 9.68579 126.674 9.48982 126.455 9.32217C125.963 8.9478 125.389 8.69794 124.782 8.59364C124.419 8.52837 124.051 8.49674 123.683 8.49912C122.994 8.48567 122.308 8.60877 121.666 8.86142C121.098 9.0976 120.597 9.47089 120.207 9.94832C119.807 10.4503 119.507 11.0253 119.324 11.6417C119.119 12.3503 119.021 13.0855 119.03 13.8234C119.03 14.2078 119.053 14.5919 119.101 14.9733C119.149 15.3288 119.224 15.6802 119.324 16.0247C119.414 16.3451 119.537 16.6553 119.691 16.9502C119.84 17.2303 120.017 17.4943 120.219 17.7378C120.422 17.9769 120.653 18.1899 120.907 18.3718C121.173 18.5621 121.459 18.7219 121.76 18.8483C122.088 18.9855 122.43 19.0859 122.78 19.1476C123.167 19.217 123.56 19.2513 123.953 19.25C124.206 19.2498 124.459 19.2367 124.711 19.2106C124.981 19.187 125.263 19.1515 125.564 19.1003C125.84 19.058 126.114 18.9948 126.381 18.9113C126.611 18.8441 126.834 18.7531 127.046 18.6396C127.146 18.5858 127.242 18.5225 127.331 18.4505C127.415 18.3839 127.493 18.3087 127.562 18.2261C127.628 18.1447 127.679 18.0511 127.71 17.9504C127.746 17.8412 127.763 17.7267 127.761 17.6117C127.762 17.4933 127.741 17.3757 127.698 17.2652C127.654 17.1502 127.591 17.0436 127.511 16.9502C127.424 16.8493 127.312 16.7733 127.186 16.7296C127.04 16.6722 126.886 16.6402 126.729 16.6351C126.618 16.6353 126.507 16.6432 126.397 16.6587C126.282 16.6748 126.168 16.6985 126.056 16.7296C125.9 16.769 125.736 16.8044 125.572 16.8359L125.329 16.8871L125.184 16.9186C125.02 16.9609 124.853 16.9938 124.684 17.0171L124.332 17.0486C124.219 17.0486 124.105 17.0486 123.996 17.0486C123.63 17.059 123.266 17.0016 122.921 16.8793C122.648 16.7812 122.411 16.6028 122.24 16.3673C122.083 16.1406 121.964 15.8891 121.889 15.623L121.885 15.6506ZM125.505 13.0121H121.767V12.9727C121.782 12.6411 121.84 12.3128 121.939 11.9961C122.022 11.736 122.155 11.495 122.33 11.2873C122.493 11.0996 122.696 10.9527 122.925 10.858C123.172 10.7553 123.439 10.7057 123.707 10.7123C124.008 10.704 124.307 10.759 124.586 10.8738C124.819 10.9753 125.014 11.1474 125.145 11.366C125.278 11.5916 125.377 11.8358 125.439 12.0906C125.508 12.3796 125.546 12.6754 125.552 12.9727V13.0121H125.505Z" fill="currentColor"></path><path fill-rule="evenodd" clip-rule="evenodd" d="M129.99 4.75003C130.453 4.7477 130.903 4.90621 131.262 5.19847C131.621 5.49074 131.868 5.89866 131.96 6.35259C132.052 6.80651 131.984 7.27831 131.767 7.68745C131.55 8.09658 131.197 8.41768 130.77 8.59594C130.342 8.7742 129.866 8.79856 129.423 8.66487C128.979 8.53117 128.596 8.24771 128.338 7.86287C128.081 7.47804 127.964 7.01568 128.01 6.55473C128.055 6.09377 128.259 5.66281 128.586 5.33539C128.77 5.14954 128.988 5.00207 129.229 4.90157C129.47 4.80107 129.729 4.74956 129.99 4.75003ZM130.705 7.61181L130.321 6.88553C130.437 6.83727 130.537 6.75627 130.608 6.65236C130.679 6.54844 130.719 6.42609 130.722 6.30016C130.725 6.12321 130.658 5.95211 130.537 5.82348C130.415 5.69484 130.248 5.61887 130.071 5.61181H129.394C129.349 5.6145 129.307 5.6338 129.276 5.6659C129.245 5.698 129.227 5.74058 129.226 5.78526V7.70395C129.233 7.74537 129.255 7.7829 129.287 7.80994C129.319 7.83698 129.36 7.8518 129.402 7.8518C129.444 7.8518 129.485 7.83698 129.517 7.80994C129.549 7.7829 129.571 7.74537 129.578 7.70395V6.94515H129.957L130.391 7.77441C130.405 7.80385 130.428 7.82864 130.456 7.8459C130.483 7.86317 130.515 7.87221 130.548 7.87198C130.575 7.87937 130.603 7.87937 130.63 7.87198C130.671 7.85004 130.702 7.8128 130.716 7.76822C130.73 7.72364 130.726 7.67527 130.705 7.63349V7.61181ZM129.578 5.9858V6.61994H130.05C130.131 6.62146 130.21 6.59121 130.27 6.53558C130.329 6.47995 130.365 6.40331 130.369 6.32184C130.371 6.23916 130.341 6.15895 130.286 6.09753C130.23 6.03611 130.154 5.99809 130.071 5.99122L129.578 5.9858ZM131.101 5.63349C130.841 5.37407 130.499 5.21273 130.134 5.17692C129.769 5.14111 129.402 5.23305 129.097 5.43709C128.791 5.64114 128.566 5.94467 128.46 6.29603C128.353 6.6474 128.371 7.02487 128.512 7.36421C128.652 7.70355 128.905 7.98379 129.229 8.15721C129.553 8.33064 129.927 8.38655 130.287 8.31542C130.647 8.24429 130.971 8.05051 131.205 7.76708C131.438 7.48364 131.566 7.12807 131.567 6.76087C131.572 6.54995 131.534 6.34025 131.457 6.14394C131.38 5.94762 131.264 5.76859 131.117 5.61723L131.101 5.63349Z" fill="currentColor"></path></svg>